<svg width="1440" height="1200" viewBox="0 0 1440 1200" fill="none" xmlns="http://www.w3.org/2000/svg">
<g clip-path="url(#clip0_29_4495)">
<path d="M1424.33 867.24C1336.79 961.57 1207.46 986.735 1097.87 1029.19C881.422 1108.25 655.573 1078.41 410.738 1041.74C314.182 1027.27 206.205 1009.41 101.73 935.665C57.5027 904.445 -20.8907 842.763 -54.0538 766.935C-81.7459 703.615 -85.2817 657.399 -89.1343 598.126C-102.281 395.851 -27.0281 270.018 73.7799 229.968C245.473 161.757 435.146 138.606 618.704 105.569C668.204 96.6596 712.934 75.3598 764.423 72.3958C837.255 68.2034 914.636 82.5588 991.541 95.2862C1089.97 111.575 1187.55 117.608 1293.68 189.383C1342.96 222.709 1445.14 334.17 1478.74 445.804C1562.17 722.962 1489.22 797.307 1424.33 867.24Z" fill="white" fill-opacity="0.5"/>
<path fill-rule="evenodd" clip-rule="evenodd" d="M-154.495 879.648C-169.256 927.706 -86.4291 973.284 -52.6719 1022.89C-24.396 1064.43 -28.9555 1117.24 20.6791 1137.05C74.2178 1158.41 128.836 1148.31 172.134 1126.68C219.279 1103.14 260.589 1068.43 260.885 1017.1C261.199 962.513 225.354 906.1 173.642 864.656C121.127 822.569 54.6771 798.575 -8.19552 801.447C-72.858 804.402 -138.369 827.146 -154.495 879.648Z" fill="#BF6E52" fill-opacity="0.5" style="mix-blend-mode:plus-darker"/>
<path fill-rule="evenodd" clip-rule="evenodd" d="M1281.28 123.282C1301.33 124.958 1321.4 113.454 1338.94 123.283C1359.05 134.548 1377.09 158.387 1372.14 180.881C1367.27 202.982 1336.87 204.965 1318.16 217.714C1305.39 226.41 1296.36 239.397 1281.28 242.766C1261.59 247.166 1239.78 250.389 1223.17 238.933C1204.31 225.922 1193.4 203.705 1191.58 180.881C1189.61 156.207 1191.55 124.985 1213.09 112.76C1234.28 100.734 1256.99 121.251 1281.28 123.282Z" fill="#483D3F" fill-opacity="0.3" style="mix-blend-mode:plus-darker"/>
</g>
<defs>
<clipPath id="clip0_29_4495">
<rect width="1440" height="1200" fill="white"/>
</clipPath>
</defs>
</svg>
